<?xml version="1.0" encoding="utf-8"?>
<!-- Generator: Adobe Illustrator 19.2.1, SVG Export Plug-In . SVG Version: 6.00 Build 0)  -->
<svg version="1.1" id="Capa_1" xmlns="http://www.w3.org/2000/svg" xmlns:xlink="http://www.w3.org/1999/xlink" x="0px" y="0px"
	 viewBox="0 0 254 525" style="enable-background:new 0 0 254 525;" xml:space="preserve">
<style type="text/css">
	.st0{fill:#4C7B73;}
	.st1{fill:#446E63;}
</style>
<g>
	<path class="st0" d="M0,250.3l3.2,64.1c0.3,5.5,5,9.8,10.5,9.5h0.9c5.5-0.3,11.6,2.9,13.5,7.2c1.9,4.2-0.7,9.3-5.8,11.4l-5.6,2.3
		c-5.1,2.1-7.9,8-6.3,13.3l3.5,11.2c1.6,5.3,7.5,9.5,13,9.3l59.4-1.3c5.5-0.1,6.6,2.7,2.3,6.2L43.5,421c-4.2,3.5-5.3,10.3-2.4,14.9
		L65.2,475c2.9,4.7,8.8,5.7,13.1,2.2l28.7-23.1c4.3-3.5,5.9-2.2,3.5,2.8L93,494.1c-2.4,5-0.6,11.6,3.9,14.8l22.2,14.4
		c3.8,1.9,11.5,2.5,15.7-0.4l19.7-13.7c4.5-3.1,6.4-9.8,4-14.8l-17.2-37.3c-2.3-5-0.7-6.2,3.5-2.7l28.5,23.4
		c4.3,3.5,10.1,2.5,13.1-2.1l24.6-38.8c2.9-4.6,1.9-11.4-2.3-15L164,383.7c-4.2-3.6-3.1-6.4,2.4-6.2l59.4,1.9
		c5.5,0.2,11.4-4,13.1-9.2l3.6-11.2c1.7-5.2-1.1-11.2-6.2-13.3l-5.6-2.3c-5.1-2.1-7.7-7.2-5.7-11.4c1.9-4.2,8-7.3,13.5-7l0.9,0.1
		c5.5,0.3,10.3-3.9,10.6-9.4l3.9-64c0.3-5.5-3.4-12.1-8.3-14.6L164,194c-4.9-2.6-7-8.6-4.6-13.5c2.3-4.8,8.3-10.7,13.3-13l49.9-22.9
		c5-2.3,7.7-8.4,5.9-13.7l-19.8-59.1c-1.8-5.2-6.6-12.5-10.7-16.1L135.4,2c-4-2.4-8.5-1.7-8.5-1.7s-2.8-0.8-5.7,1.7L58,55.2
		c-4.2,3.6-9.1,10.8-10.9,16L26.7,130c-1.8,5.2,0.8,11.4,5.8,13.7l49.7,23.4c5,2.3,10.9,8.2,13.2,13.1c2.3,4.9,0.1,10.9-4.8,13.4
		l-82.2,42C3.5,238.2-0.3,244.8,0,250.3z"/>
	<g>
		<path class="st1" d="M125.1,17.2c0.2-0.1,0.4-0.2,0.6-0.3c0.6,0,1,0.4,1.1,0.9c13.2,182.7-1.1,485.4-1.2,488.4c0,0.6-0.5,1-1,1
			c-0.6,0-1-0.5-1-1c0.1-3,14.4-305.6,1.2-488.2C124.7,17.7,124.9,17.4,125.1,17.2z"/>
	</g>
</g>
</svg>
