<?xml version="1.0" encoding="utf-8"?>
<!-- Generator: Adobe Illustrator 19.2.1, SVG Export Plug-In . SVG Version: 6.00 Build 0)  -->
<svg version="1.1" id="Capa_1" xmlns="http://www.w3.org/2000/svg" xmlns:xlink="http://www.w3.org/1999/xlink" x="0px" y="0px"
	 viewBox="0 0 32 310" style="enable-background:new 0 0 32 310;" xml:space="preserve">
<style type="text/css">
	.st0{fill:#9FDB97;}
</style>
<path class="st0" d="M18.7,210.4C1.4,151,1.6,145.5,2.3,122.2c0-1.3,0.1-2.7,0.1-4.2c0,0,0-0.1,0-0.1C-0.5,57.2,30,2,30.3,1.5
	c0.3-0.5,0.1-1.1-0.4-1.4c-0.5-0.3-1.1-0.1-1.4,0.4C28.2,1.1-2.7,56.8,0.3,118.2c0,0,0,0,0,0c0,1.4-0.1,2.6-0.1,3.9
	c-0.7,23.6-0.9,29.1,16.5,88.8c18,62,12.4,97.8,12.4,98.2c-0.1,0.5,0.3,0.9,0.9,1c0,0,0,0,0,0c0.5,0.1,1-0.1,1.1-0.7
	C31.2,309,36.8,272.8,18.7,210.4z"/>
</svg>
