<?xml version="1.0" encoding="utf-8"?>
<!-- Generator: Adobe Illustrator 19.2.1, SVG Export Plug-In . SVG Version: 6.00 Build 0)  -->
<svg version="1.1" id="Capa_1" xmlns="http://www.w3.org/2000/svg" xmlns:xlink="http://www.w3.org/1999/xlink" x="0px" y="0px"
	 viewBox="0 0 185 205" style="enable-background:new 0 0 185 205;" xml:space="preserve">
<style type="text/css">
	.st0{fill:#446D65;}
</style>
<g>
	<path class="st0" d="M1.4,6.2C7.9,11,12.2,18.1,17.6,23.9c5.8,6.1,11.9,11.8,17,18.5c10.5,13.9,17.4,30.2,21.8,46.9
		c4.5,17.3,6.5,35.1,7.7,52.9c0.6,9.2,1.7,18.7,1.4,27.9c-0.3,7.9-4,15.4-2.2,23.3c0.6,2.3,4.3,1.6,3.7-0.7c-1.2-5,0.2-9.6,1.2-14.5
		c0.9-4.1,1.1-8.1,1-12.3c-0.3-9.1-0.9-18.2-1.6-27.3c-1.4-18.6-3.6-37.2-8.9-55.1C54.2,68,47.4,53,37.5,40
		C32,32.8,25.3,26.8,19.3,20.1C14,14.4,9.9,7.7,3.5,3.1C1.6,1.6-0.6,4.8,1.4,6.2L1.4,6.2z"/>
</g>
</svg>
