<?xml version="1.0" encoding="utf-8"?>
<!-- Generator: Adobe Illustrator 19.2.1, SVG Export Plug-In . SVG Version: 6.00 Build 0)  -->
<svg version="1.1" id="Capa_1" xmlns="http://www.w3.org/2000/svg" xmlns:xlink="http://www.w3.org/1999/xlink" x="0px" y="0px"
	 viewBox="0 0 185 205" style="enable-background:new 0 0 185 205;" xml:space="preserve">
<style type="text/css">
	.st0{fill:#446D65;}
</style>
<g>
	<path class="st0" d="M0.4,3.2c1.9,2.5,4.3,4.2,7,5.9c3.6,2.3,6.6,4.9,9.4,8c5.7,6.4,11.3,13,16.6,19.7C44.5,50.8,53.1,66.3,61,82.4
		c7.7,15.8,15,31.7,23.8,46.8c8.9,15.2,19,29.6,30.1,43.3c1.5,1.9,4.4-0.6,2.9-2.5c-11.7-14.4-22.3-29.7-31.5-45.8
		C77.6,109,70.5,93,62.7,77.3c-7.5-15.2-15.9-29.7-26.4-42.9C30.9,27.6,25.4,21,19.6,14.6C17.3,12,14.9,9.5,12,7.5
		C8.9,5.3,5.6,3.8,3.3,0.7C1.9-1.2-1,1.2,0.4,3.2L0.4,3.2z"/>
</g>
</svg>
