<?xml version="1.0" encoding="utf-8"?>
<!-- Generator: Adobe Illustrator 19.2.1, SVG Export Plug-In . SVG Version: 6.00 Build 0)  -->
<svg version="1.1" id="Capa_1" xmlns="http://www.w3.org/2000/svg" xmlns:xlink="http://www.w3.org/1999/xlink" x="0px" y="0px"
	 viewBox="0 0 185 205" style="enable-background:new 0 0 185 205;" xml:space="preserve">
<style type="text/css">
	.st0{fill:#446D65;}
</style>
<g>
	<path class="st0" d="M1,4.9c7.6,4.1,11.9,11.3,17.6,17.4c5.3,5.7,12,9.9,17.6,15.2C49.1,49.6,60.9,63,72.6,76.1
		c11.7,13.1,22.5,27.3,35.1,39.6c12.4,12.1,26.7,22,40.8,31.8c2,1.4,4.1-1.8,2.1-3.2c-14.7-10.2-29.5-20.4-42.2-33.2
		C95.9,98.4,84.9,84,72.9,70.7c-11.5-12.8-23-26-35.7-37.5c-6-5.4-12.6-9.8-17.9-16C14.4,11.5,10,5.4,3.2,1.7C1.1,0.6-1.1,3.7,1,4.9
		L1,4.9z"/>
</g>
</svg>
