<?xml version="1.0" encoding="utf-8"?>
<!-- Generator: Adobe Illustrator 19.2.1, SVG Export Plug-In . SVG Version: 6.00 Build 0)  -->
<svg version="1.1" id="Capa_1" xmlns="http://www.w3.org/2000/svg" xmlns:xlink="http://www.w3.org/1999/xlink" x="0px" y="0px"
	 viewBox="0 0 185 205" style="enable-background:new 0 0 185 205;" xml:space="preserve">
<style type="text/css">
	.st0{fill:#446D65;}
</style>
<g>
	<path class="st0" d="M0.9,4.5C11,18.1,27.2,26.3,41.2,35.4C56.9,45.6,72.6,56,89.1,65c15.4,8.4,31.7,15.4,48.4,20.9
		c8.4,2.8,16.9,5.2,25.4,7.4c6.9,1.7,13.8,3.2,20.8,1.2c2.3-0.7,1.4-4.3-1-3.7c-7.6,2.2-15.3-0.2-22.6-2.1c-7.9-2.1-15.8-4.4-23.6-7
		c-16.4-5.6-32.2-12.5-47.4-20.9c-15-8.3-29.3-17.8-43.7-27.1c-14-9.1-31.2-17.4-41.4-31.1C2.7,0.7-0.6,2.6,0.9,4.5L0.9,4.5z"/>
</g>
</svg>
