<?xml version="1.0" encoding="utf-8"?>
<!-- Generator: Adobe Illustrator 19.2.1, SVG Export Plug-In . SVG Version: 6.00 Build 0)  -->
<svg version="1.1" id="Capa_1" xmlns="http://www.w3.org/2000/svg" xmlns:xlink="http://www.w3.org/1999/xlink" x="0px" y="0px"
	 viewBox="0 0 30 30" style="enable-background:new 0 0 30 30;" xml:space="preserve">
<style type="text/css">
	.st0{fill:#FFFFFF;}
</style>
<path class="st0" d="M30,6.2H0C0,2.8,2.8,0,6.2,0h17.5C27.2,0,30,2.8,30,6.2z M26.9,19.4c0-1.7-1.4-3.1-3.1-3.1s-3.1,1.4-3.1,3.1
	s1.4,3.1,3.1,3.1S26.9,21.1,26.9,19.4z M29.7,29.5c0.2-0.3,0.3-0.7,0.2-1.1c-0.7-2.8-3.3-4.7-6.2-4.7s-5.5,1.9-6.2,4.7
	c-0.1,0.4,0,0.8,0.2,1.1c0.2,0.3,0.6,0.5,1,0.5h10C29.1,30,29.5,29.8,29.7,29.5z M30,8.8v7.5c0,1-0.3,1.9-0.7,2.7
	c-0.2-2.9-2.6-5.2-5.6-5.2c-3.1,0-5.6,2.5-5.6,5.6c0,1.2,0.4,2.2,1,3.1H6.2c-3.4,0-6.2-2.8-6.2-6.2V8.8H30z M7.5,16.9
	c0-1-0.8-1.9-1.9-1.9s-1.9,0.8-1.9,1.9s0.8,1.9,1.9,1.9S7.5,17.9,7.5,16.9z"/>
</svg>
