<?xml version="1.0" encoding="utf-8"?>
<!-- Generator: Adobe Illustrator 23.1.0, SVG Export Plug-In . SVG Version: 6.00 Build 0)  -->
<svg version="1.1" id="Capa_1" xmlns="http://www.w3.org/2000/svg" xmlns:xlink="http://www.w3.org/1999/xlink" x="0px" y="0px"
	 viewBox="0 0 19.7 21.7" style="enable-background:new 0 0 19.7 21.7;" xml:space="preserve">
<style type="text/css">
	.st0{fill:#FFFFFF;}
</style>
<g>
	<g>
		<path class="st0" d="M19.3,5v-4c0-0.2-0.1-0.4-0.2-0.5c-0.2-0.1-0.4-0.1-0.5-0.1l-12,3.8C6.3,4.3,6.1,4.5,6.1,4.7v11.8
			c-0.6-0.4-1.4-0.7-2.3-0.7c-0.9,0-1.7,0.3-2.4,0.8c-0.7,0.5-1.1,1.2-1.1,2c0,0.8,0.4,1.5,1.1,2c0.6,0.5,1.5,0.8,2.4,0.8
			s1.7-0.3,2.4-0.8c0.7-0.5,1.1-1.2,1.1-2V9.2l10.8-3.4v6.9c-0.6-0.4-1.4-0.7-2.3-0.7c-0.9,0-1.7,0.3-2.4,0.8
			c-0.7,0.5-1.1,1.2-1.1,2c0,0.8,0.4,1.5,1.1,2c0.6,0.5,1.5,0.8,2.4,0.8c0.9,0,1.7-0.3,2.4-0.8c0.7-0.5,1.1-1.2,1.1-2V5z M3.8,20.1
			c-1.2,0-2.3-0.7-2.3-1.6c0-0.8,1-1.6,2.3-1.6c1.2,0,2.3,0.7,2.3,1.6C6.1,19.4,5.1,20.1,3.8,20.1L3.8,20.1z M7.3,8V5.2l10.8-3.4
			v2.8L7.3,8z M15.8,16.3c-1.2,0-2.3-0.7-2.3-1.6c0-0.8,1-1.6,2.3-1.6c1.2,0,2.3,0.7,2.3,1.6C18.1,15.6,17.1,16.3,15.8,16.3
			L15.8,16.3z M15.8,16.3"/>
	</g>
</g>
</svg>
