<?xml version="1.0" encoding="utf-8"?>
<!-- Generator: Adobe Illustrator 19.2.1, SVG Export Plug-In . SVG Version: 6.00 Build 0)  -->
<svg version="1.1" id="Capa_1" xmlns="http://www.w3.org/2000/svg" xmlns:xlink="http://www.w3.org/1999/xlink" x="0px" y="0px"
	 viewBox="0 0 1975 1154" style="enable-background:new 0 0 1975 1154;" xml:space="preserve">
<style type="text/css">
	.st0{fill:#F4F6F9;}
</style>
<g>
	<path class="st0" d="M1312.8,239.8c99,6,177-96,276,3s6,174,51,240s174,3,234,31c34.8,16.2,100.4,62,100.4,156.4
		s-60.9,150.8-137,179.8c-73.9,28.1-162.5,36.3-211.9,98.1c-16.3,20.4-26.5,44.8-39.3,67.6c-47.7,84.7-146.8,148.3-240.9,124.3
		c-44.1-11.3-81.5-39.7-121.1-62.3c-39.6-22.6-86.5-40.1-130.1-26.8c-36.2,11.1-63.2,41.2-96.5,59.2c-74.3,40.2-168.4,13.8-238.7-33
		c-70.4-46.8-127-112-197.1-159.1c-52.2-35.1-117.5-60-177.4-41.1C305.6,901.8,261,993.7,181,1013.7
		c-72.3,18.1-150.1-35.9-172.7-107c-25.4-79.9,13.8-175.2,88-214c16.7-8.7,35-15,49.6-26.9c35.6-29.2,38.7-81.7,57.8-123.7
		c20.8-45.7,64-80.5,113-91.3c13.2-2.9,26.9-4.2,39.3-9.6c25.2-11,40.4-36.6,52.6-61.2c31.1-63,60.8-137.7,127.2-160.6
		c68.9-23.8,149.3,20.5,216.1-8.6c32.4-14.1,55.5-43.2,75.9-72.1c47.7-67.3,90.5-130.6,173-129.9
		C1207.6,8.8,1213.8,233.8,1312.8,239.8z"/>
</g>
</svg>
