<?xml version="1.0" encoding="utf-8"?>
<!-- Generator: Adobe Illustrator 19.2.1, SVG Export Plug-In . SVG Version: 6.00 Build 0)  -->
<svg version="1.1" id="Capa_1" xmlns="http://www.w3.org/2000/svg" xmlns:xlink="http://www.w3.org/1999/xlink" x="0px" y="0px"
	 viewBox="0 0 144 258" style="enable-background:new 0 0 144 258;" xml:space="preserve">
<style type="text/css">
	.st0{fill:#4C7B73;}
	.st1{fill:#446D64;}
</style>
<g>
	<path class="st0" d="M72,0c0,0-158,131.6,0,257C72,257,231.7,117.6,72,0z"/>
	<g>
		<path class="st1" d="M73.3,11.5c0.2-0.5,0.7-0.7,1.3-0.6c0.5,0.2,0.8,0.7,0.6,1.3C75,12.7,57.4,64.9,74.1,127
			c16.9,62.7,16.6,88-1.5,128c-0.2,0.5-0.8,0.7-1.3,0.5s-0.7-0.8-0.5-1.3c17.9-39.4,18.1-64.4,1.4-126.7
			C55.3,64.8,73.1,12.1,73.3,11.5L73.3,11.5z"/>
	</g>
	<g>
		<path class="st1" d="M25.1,110.1c0-0.1,0.1-0.2,0.1-0.2l40.2-52.7c0.3-0.4,0.9-0.5,1.4-0.2l63.5,42.7c0.5,0.3,0.6,0.9,0.3,1.4
			s-0.9,0.6-1.4,0.3L66.4,59.1l-39.6,52c-0.3,0.4-1,0.5-1.4,0.2C25,111,24.9,110.5,25.1,110.1z"/>
	</g>
	<g>
		<path class="st1" d="M41.8,172.9c0-0.1,0.1-0.1,0.1-0.2L72.3,132c0.3-0.4,0.9-0.5,1.3-0.2l51.3,33.1c0.5,0.3,0.6,0.9,0.3,1.4
			c-0.3,0.5-0.9,0.6-1.4,0.3L73.3,134l-29.7,39.9c-0.3,0.4-1,0.5-1.4,0.2C41.8,173.8,41.7,173.3,41.8,172.9z"/>
	</g>
</g>
</svg>
