<?xml version="1.0" encoding="utf-8"?>
<!-- Generator: Adobe Illustrator 19.2.1, SVG Export Plug-In . SVG Version: 6.00 Build 0)  -->
<svg version="1.1" id="Capa_1" xmlns="http://www.w3.org/2000/svg" xmlns:xlink="http://www.w3.org/1999/xlink" x="0px" y="0px"
	 viewBox="0 0 54 292" style="enable-background:new 0 0 54 292;" xml:space="preserve">
<style type="text/css">
	.st0{fill:#446D65;}
</style>
<g>
	<path class="st0" d="M27.5,186.2c-7.9-40.9-15.1-76.8-2.3-98.7c14.3-23-3.6-63.9,3.5-85.9c0,0-0.3-1.6-1.7-1.6s-1.7,1-1.7,1
		c-9,43,10.1,47.3-2.8,85c-13.2,22.4-6.1,59.2,1.9,100.7c5.8,29.9-14.6,80.3-0.8,103.5c0,0,1.2,1.8,3.4,1.8s1.7-2.2,1.7-2.2
		C16.5,267.8,32.8,213.8,27.5,186.2z"/>
</g>
</svg>
